<?xml version="1.0" encoding="UTF-8"?>
<svg width="845px" height="155px" viewBox="0 0 845 155" version="1.1" xmlns="http://www.w3.org/2000/svg" xmlns:xlink="http://www.w3.org/1999/xlink">
    <!-- Generator: Sketch 51.3 (57544) - http://www.bohemiancoding.com/sketch -->
    <title>text</title>
    <desc>Created with Sketch.</desc>
    <defs></defs>
    <g id="text" stroke="none" stroke-width="1" fill="none" fill-rule="evenodd">
        <g transform="translate(17.000000, 4.000000)" fill="#FFFFFF" fill-rule="nonzero" id="Group">
            <g transform="translate(403.000000, 64.500000) scale(-1, 1) rotate(-180.000000) translate(-403.000000, -64.500000) translate(0.000000, -0.000000)">
                <path d="M288.767439,107.835499 L288.767439,87.3723128 L292.132901,88.2149145 C293.935826,88.6964013 299.705188,89.0575163 304.99377,89.1778879 C317.253667,89.1778879 324.22498,86.6500825 330.715512,79.5481534 C338.407997,71.2425071 339.249361,66.4276398 339.249361,32.3624538 L339.249361,3.11213479 L330.354928,3.11213479 L321.460493,3.11213479 L320.979713,32.3624538 C320.619129,59.0849672 320.378738,61.8535161 318.215227,65.7054098 C314.609376,71.7239939 308.479428,73.6499409 297.661872,72.2054807 L289.368414,71.1221355 L289.00783,37.1773211 L288.767439,3.11213479 L279.752811,3.11213479 L270.73818,3.11213479 L270.978571,64.140578 L271.339155,125.289393 L279.151833,126.613481 C283.478857,127.335711 287.325098,128.057941 287.926073,128.178313 C288.406853,128.178313 288.767439,119.030065 288.767439,107.835499 Z M63.8824904,110.363304 C71.574974,95.4372156 106.070955,8.40848886 106.070955,4.19548003 C106.070955,3.59362159 101.503543,3.11213479 95.9745701,3.11213479 L85.8781855,3.11213479 L82.753114,11.8992676 C81.0703833,16.5937632 78.9068724,22.732719 77.9453118,25.3808961 L76.3827762,30.1957633 L62.5603447,30.7976218 L48.8581085,31.3994802 L51.2620095,39.2236397 L53.7861057,47.0477989 L61.8391744,47.408914 L69.8922431,47.7700292 L67.7287322,54.0293566 C63.8824904,64.7424364 54.146691,88.5760295 53.3053254,89.1778879 C52.2235701,89.7797463 42.4877705,64.9831797 29.7470947,29.3531616 L20.3718804,3.11213479 L10.3956907,3.11213479 L0.419501139,3.11213479 L2.58301231,9.49183386 C11.8380314,35.9736042 28.7855343,78.5851798 39.6030893,102.418773 L45.2522568,115.0578 L53.4255205,115.0578 L61.5987844,115.0578 L63.8824904,110.363304 Z M223.862108,100.613198 L223.862108,88.5760295 L238.88649,88.5760295 L253.910873,88.5760295 L253.910873,80.1500118 L253.910873,71.7239939 L238.88649,71.7239939 L223.862108,71.7239939 L223.862108,50.0570911 C223.862108,24.658666 224.703474,21.0475156 231.434398,18.8808251 C236.00181,17.3159933 242.251952,17.9178518 249.343462,20.6864004 L253.790678,22.3716041 L255.112824,17.7974801 C258.35809,5.27882503 258.598481,5.88068347 250.7858,3.59362159 C241.650976,0.825072914 227.347766,0.825072914 220.857233,3.59362159 C214.3667,6.36217026 211.361823,9.49183386 207.996361,16.7141349 C205.35207,22.8530907 205.231874,24.0568075 204.87129,66.5480117 L204.390511,110.122561 L209.078118,110.844791 C211.602214,111.326278 214.246505,111.807764 214.84748,112.048508 C215.568651,112.289251 217.852355,112.529994 220.015867,112.529994 L223.862108,112.650366 L223.862108,100.613198 Z M409.323078,87.3723128 C417.015563,84.4833923 423.506096,78.1036932 427.111946,69.9184188 C429.275458,65.3442948 429.996629,61.0109141 430.357213,51.6219229 L430.837995,39.2236397 L403.553716,39.2236397 L376.149245,39.2236397 L376.870413,34.7698873 C379.033925,21.649374 392.856356,15.2696747 411.00581,19.001197 C415.453027,19.9641704 420.020439,21.1678872 421.102193,21.649374 C422.784926,22.3716041 423.385901,21.2882589 424.467655,14.9085598 C426.150387,5.51956854 425.549412,4.91771011 413.770297,2.38990471 C398.986304,-0.739759116 384.202312,1.30655948 373.865538,7.80663042 C357.519011,18.2789669 351.389062,46.9274272 361.124861,67.6313567 C369.538517,85.6871092 390.692844,94.3538703 409.323078,87.3723128 Z M496.945275,87.4926845 C488.291231,90.7427199 464.49261,89.4186314 452.833688,84.9648791 L449.828813,83.7611622 L449.828813,43.4366485 L449.828813,3.11213479 L458.843441,3.11213479 L467.858072,3.11213479 L467.858072,37.2976927 L467.858072,71.6036223 L473.387043,72.446224 C476.391921,72.8073391 481.920892,72.8073391 485.64694,72.3258523 C497.906835,70.7610205 496.945275,70.2795337 498.50781,78.7055516 C499.950151,86.2889676 499.950151,86.4093392 496.945275,87.4926845 Z M562.331385,86.4093392 C555.360071,90.0204896 541.53764,90.6223481 533.123986,87.6130561 C515.455314,81.2333568 506.80127,65.9461533 507.762829,42.3533033 C508.243608,27.9087015 511.488877,19.4826836 519.541944,11.6585243 C526.994038,4.43622331 535.527887,1.54730299 550.191684,1.42693112 C563.172749,1.30655948 576.033621,4.19548003 576.033621,7.20477198 C576.033621,9.37146222 573.749914,21.5290022 573.148939,22.0104889 C573.028744,22.2512322 570.865234,21.649374 568.581527,20.6864004 C561.490019,17.6771085 549.710904,16.9548784 542.25881,19.1215686 C534.926912,21.2882589 531.441254,24.4179227 528.556575,31.0383653 C525.070917,39.5847546 523.748772,39.103268 554.158121,39.4643829 L581.442399,39.8254981 L581.802983,44.3996219 C582.403958,50.8996928 580.000058,65.2239232 577.355767,71.1221355 C574.711476,77.1407196 568.942114,83.0389321 562.331385,86.4093392 Z M385.163873,70.2795337 C381.558021,67.7517284 376.509829,59.566454 376.509829,56.3164185 C376.509829,55.2330735 381.317632,54.8719583 393.938113,54.8719583 L411.366395,54.8719583 L411.366395,57.8812505 C411.366395,62.0942594 408.481715,67.3906134 404.635471,70.3999054 C400.068059,74.011056 390.452456,73.8906841 385.163873,70.2795337 Z M533.96535,68.5943303 C538.172178,72.3258523 539.614519,72.9277108 544.782906,72.9277108 C548.028172,72.9277108 552.114805,72.3258523 553.797534,71.4832506 C557.403387,69.9184188 561.00924,64.2609496 561.970799,58.8442239 L562.812165,54.8719583 L544.662711,54.8719583 C524.950722,54.8719583 526.393063,54.2700999 528.556575,61.7331442 C528.917159,63.1776044 531.441254,66.3072682 533.96535,68.5943303 Z M741.542212,85.9278524 L747.792355,82.7981888 L755.364643,85.9278524 C761.494591,88.4556578 764.980248,89.0575163 773.754486,89.0575163 C786.254771,89.1778879 792.144329,86.890826 798.033886,79.5481534 C804.163835,72.2054807 804.644615,68.8350736 805.245592,34.6495157 L805.846567,3.11213479 L796.110766,3.11213479 L786.374967,3.11213479 L786.374967,32.3624538 C786.374967,64.2609496 785.653796,67.9924719 779.163264,71.4832506 C775.677607,73.2888259 763.297516,72.6869675 758.489714,70.520277 C755.725229,69.1961885 755.605034,68.714702 756.446397,64.140578 C757.047375,61.3720293 757.407959,46.4459407 757.528154,31.1587369 L757.528154,3.11213479 L748.513526,3.11213479 L739.498895,3.11213479 L739.498895,26.9457279 C739.498895,52.9460114 738.296945,63.5387195 734.931483,68.1128435 C732.046801,71.8443655 725.075489,73.5295692 716.181054,72.446224 L709.450133,71.6036223 L709.450133,37.2976927 L709.450133,3.11213479 L700.435502,3.11213479 L691.420874,3.11213479 L691.661265,44.2792502 L692.021849,85.4463659 L696.228677,86.4093392 C705.603891,88.5760295 715.33969,89.5390031 725.075489,89.4186314 C733.609338,89.1778879 736.49402,88.5760295 741.542212,85.9278524 Z M132.513867,62.4553743 C132.513867,48.0107725 133.114842,34.0476572 133.715817,31.5198518 C136.119719,20.8067721 142.369861,17.1956217 156.432683,18.3993386 L164.966532,19.1215686 L164.966532,53.7886131 L164.966532,88.5760295 L173.981161,88.5760295 L182.99579,88.5760295 L182.99579,47.1681708 C182.99579,8.64923214 182.875595,5.63994018 180.952474,5.03808175 C173.259991,2.87139151 162.682826,1.54730299 151.745076,1.54730299 C141.047716,1.42693112 138.163035,1.78804628 133.114842,4.07510815 C125.542554,7.56588714 122.297287,10.6955507 118.33085,18.158595 C115.085584,24.1771792 115.085584,24.1771792 114.724999,56.4367901 L114.364413,88.5760295 L123.379043,88.5760295 L132.513867,88.5760295 L132.513867,62.4553743 Z M618.10189,59.0849672 C618.462474,42.11256 619.30384,28.9920467 620.145206,27.1864714 C623.270277,19.9641704 629.760809,17.3159933 642.140902,18.3993386 L650.554555,19.1215686 L650.554555,53.7886131 L650.554555,88.5760295 L659.569183,88.5760295 L668.583814,88.5760295 L668.583814,47.1681708 C668.583814,8.64923214 668.463619,5.63994018 666.540498,5.03808175 C658.72782,2.87139151 648.270848,1.54730299 637.333099,1.54730299 C626.515543,1.42693112 623.751056,1.78804628 618.342281,4.19548003 C614.736428,5.88068347 610.169016,9.13071894 607.885311,11.8992676 C600.673606,20.3252855 599.832242,24.5382943 599.231267,56.3164185 C598.870681,72.0851091 598.870681,85.8074808 599.35146,86.7704544 C599.952438,88.3352862 601.755363,88.5760295 608.726675,88.3352862 L617.500915,87.974171 L618.10189,59.0849672 Z" id="Shape"></path>
            </g>
        </g>
    </g>
</svg>