<?xml version="1.0" encoding="UTF-8"?>
<svg width="352px" height="270px" viewBox="0 0 352 270" version="1.1" xmlns="http://www.w3.org/2000/svg" xmlns:xlink="http://www.w3.org/1999/xlink">
    <!-- Generator: Sketch 51.3 (57544) - http://www.bohemiancoding.com/sketch -->
    <title>Group 3</title>
    <desc>Created with Sketch.</desc>
    <defs></defs>
    <g id="Page-1" stroke="none" stroke-width="1" fill="none" fill-rule="evenodd">
        <g id="Group-3">
            <g id="Group-2">
                <rect id="Rectangle" fill="#232427" x="0" y="0" width="352" height="270"></rect>
                <g id="Group-4" transform="translate(98.000000, 39.000000)">
                    <g id="file" fill="#F76F51" fill-rule="nonzero">
                        <g id="Group" transform="translate(78.400000, 94.900000) scale(-1, 1) rotate(-180.000000) translate(-78.400000, -94.900000) translate(0.900000, 0.900000)">
                            <path d="M54.1,179.4 C42.9,174.8 33.1,170.3 32.5,169.4 C31.8,168.5 30.7,165.4 30.1,162.6 C27.3,150.6 19.6,140.7 8.6,134.9 C5.3,133.2 2,131 1.4,130.1 C-0.2,128.1 -0.5,57.8 1.1,54.9 C2,53.2 68.1,3.6 72.8,1.1 C76.3,-0.8 79.4,-0.3 84.4,3.2 C98.5,12.9 153,54.1 153.5,55.5 C153.8,56.4 154.1,72.9 154.1,92.3 C154.1,122.2 153.9,127.8 152.6,129.6 C151.7,130.8 148.3,133.3 145,135 C134,140.9 125.9,152 123.6,164.1 C123.2,166.1 121.9,168.7 120.7,169.8 C118.2,172.2 79.7,187.9 76.6,187.8 C75.5,187.8 65.4,184 54.1,179.4 Z" id="Shape"></path>
                        </g>
                    </g>
                    <g id="eth-symbol-virgil" transform="translate(40.000000, 33.000000)" fill="#FFFFFF">
                        <path d="M36.8410356,1.18986808 C36.5652449,1.84412698 28.2313322,15.7150225 18.3212297,32.0141927 C8.41112711,48.3130258 0.22038076,61.8623536 0.119042123,62.1239223 C-0.0125620806,62.4640291 5.37130806,65.7838621 18.997274,73.7644051 L38.0601598,84.9289406 L57.1176046,73.7583378 C70.8088626,65.7329641 76.1230199,62.4525686 75.9900555,62.108754 C75.3014288,60.3296822 38.2427734,0 37.838439,0 C37.5657089,0 37.1168263,0.535272097 36.8410356,1.18986808 M0.16427044,70.1533409 C0.898805528,71.3981519 37.9027109,123.004719 38.0574393,123 C38.3131664,122.992247 76.1458041,70.0003097 75.9995772,69.8550312 C75.8615118,69.7185165 40.4987483,90.3628962 39.023557,91.4411931 L38.1193307,92.1025305 L19.8100235,81.3876505 C9.73975145,75.4946013 1.12868781,70.435134 0.674364251,70.144914 C-0.078874276,69.6639107 -0.124102594,69.6645849 0.16427044,70.1533409" id="path0"></path>
                    </g>
                </g>
            </g>
        </g>
    </g>
</svg>