<?xml version="1.0" encoding="UTF-8"?>
<svg width="298px" height="298px" viewBox="0 0 298 298" version="1.1" xmlns="http://www.w3.org/2000/svg" xmlns:xlink="http://www.w3.org/1999/xlink">
    <!-- Generator: Sketch 51.3 (57544) - http://www.bohemiancoding.com/sketch -->
    <title>Artboard</title>
    <desc>Created with Sketch.</desc>
    <defs></defs>
    <g id="Artboard" stroke="none" stroke-width="1" fill="none" fill-rule="evenodd">
        <rect id="Rectangle" x="19" y="0" width="289" height="289"></rect>
        <g id="logo" transform="translate(54.000000, 41.000000)" fill="#FF4C2F" fill-rule="nonzero">
            <g id="Group" transform="translate(95.500000, 117.500000) scale(-1, 1) rotate(-180.000000) translate(-95.500000, -117.500000) ">
                <path d="M46.5966184,228.272549 C35.4318841,224.770588 20.3917874,219.978431 13.194686,217.67451 L0,213.527451 L0,166.25098 C0,115.011765 0.276811594,111.694118 5.25942029,96.7647059 C9.87294686,82.9411765 19.1,67.827451 29.7111111,56.8607843 C32.9405797,53.5431373 48.9033816,39.4431373 65.1429952,25.4352941 L94.8541063,0 L125.672464,26.4490196 C142.557971,41.0098039 158.797585,55.5705882 161.657971,58.7960784 C173.56087,71.7901961 182.32657,88.1019608 187.032367,105.519608 L189.523671,114.55098 L189.892754,164.039216 L190.169565,213.435294 L182.511111,215.831373 C178.266667,217.121569 163.22657,221.913725 149.016908,226.337255 C134.807246,230.852941 122.996618,234.447059 122.812077,234.262745 C122.719807,234.170588 125.303382,228.641176 128.717391,222.190196 L134.899517,210.301961 L152.523188,204.772549 L170.23913,199.335294 L170.23913,158.786275 C170.23913,119.25098 170.14686,118.052941 168.024638,110.035294 C164.149275,95.2901961 157.413527,82.8490196 147.079227,71.7901961 C144.12657,68.5647059 131.116425,56.7686275 118.198551,45.7098039 L94.8541063,25.527451 L92.3628019,27.7392157 C91.0710145,28.9372549 79.6294686,38.7980392 66.9884058,49.5803922 C41.5217391,71.4215686 34.9705314,78.6098039 28.1425121,92.4333333 C20.1149758,108.652941 19.9304348,109.666667 19.5613527,157.403922 L19.2845411,199.335294 L36.815942,204.772549 L54.4396135,210.301961 L57.7613527,216.752941 C59.6067633,220.347059 62.5594203,225.876471 64.3125604,229.101961 C66.0657005,232.235294 67.3574879,234.815686 67.1729469,234.723529 C67.0806763,234.723529 57.7613527,231.77451 46.5966184,228.272549 Z" id="Shape"></path>
                <path d="M66.5270531,181.733333 L38.5690821,128.835294 L39.2149758,123.95098 C40.1376812,117.131373 41.8908213,111.233333 45.3048309,104.413725 C50.8410628,93.1705882 48.5342995,90.4980392 72.8014493,136.668627 C84.6120773,159.247059 94.5772947,177.678431 94.9463768,177.678431 C95.2231884,177.678431 105.280676,159.431373 117.183575,137.129412 C129.086473,114.827451 139.236232,96.7647059 139.789855,96.8568627 C141.542995,97.5019608 148.278744,111.970588 149.29372,117.407843 C151.692754,130.033333 153.999517,124.319608 123.827053,180.443137 C108.694686,208.55098 95.9613527,232.327451 95.4077295,233.156863 C94.7618357,234.447059 88.7642512,223.84902 66.5270531,181.733333 Z" id="Shape"></path>
                <path d="M81.1980676,107.178431 C73.8164251,92.7098039 67.72657,80.545098 67.542029,80.1764706 C67.3574879,79.5313725 74.2777778,73.3568627 93.3777778,57.1372549 C94.7618357,55.9392157 96.2381643,56.9529412 108.417874,67.5509804 C115.799517,74.0019608 121.797101,79.4392157 121.797101,79.6235294 C121.797101,80.1764706 95.0386473,133.443137 94.7618357,133.443137 C94.6695652,133.443137 88.5797101,121.554902 81.1980676,107.178431 Z" id="Shape"></path>
            </g>
        </g>
    </g>
</svg>