<?xml version="1.0" standalone="no"?>
<!DOCTYPE svg PUBLIC "-//W3C//DTD SVG 20010904//EN"
 "http://www.w3.org/TR/2001/REC-SVG-20010904/DTD/svg10.dtd">
<svg version="1.0" xmlns="http://www.w3.org/2000/svg"
 width="758.000000pt" height="232.000000pt" viewBox="0 0 758.000000 232.000000"
 preserveAspectRatio="xMidYMid meet">
<metadata>
Created by potrace 1.15, written by Peter Selinger 2001-2017
</metadata>
<g transform="translate(0.000000,232.000000) scale(0.100000,-0.100000)"
fill="#000000" stroke="none">
<path d="M0 1160 l0 -1160 3790 0 3790 0 0 1160 0 1160 -3790 0 -3790 0 0
-1160z m2780 490 l0 -170 28 7 c15 4 63 7 107 8 102 0 160 -21 214 -80 64 -69
71 -109 71 -392 l0 -243 -74 0 -74 0 -4 243 c-3 222 -5 245 -23 277 -30 50
-81 66 -171 54 l-69 -9 -3 -282 -2 -283 -75 0 -75 0 2 507 3 508 65 11 c36 6
68 12 73 13 4 0 7 -76 7 -169z m-1871 21 c64 -124 351 -847 351 -882 0 -5 -38
-9 -84 -9 l-84 0 -26 73 c-14 39 -32 90 -40 112 l-13 40 -115 5 -114 5 20 65
21 65 67 3 67 3 -18 52 c-32 89 -113 287 -120 292 -9 5 -90 -201 -196 -497
l-78 -218 -83 0 -83 0 18 53 c77 220 218 574 308 772 l47 105 68 0 68 0 19
-39z m1331 -81 l0 -100 125 0 125 0 0 -70 0 -70 -125 0 -125 0 0 -180 c0 -211
7 -241 63 -259 38 -13 90 -8 149 15 l37 14 11 -38 c27 -104 29 -99 -36 -118
-76 -23 -195 -23 -249 0 -54 23 -79 49 -107 109 -22 51 -23 61 -26 414 l-4
362 39 6 c21 4 43 8 48 10 6 2 25 4 43 4 l32 1 0 -100z m1543 -110 c64 -24
118 -77 148 -145 18 -38 24 -74 27 -152 l4 -103 -227 0 -228 0 6 -37 c18 -109
133 -162 284 -131 37 8 75 18 84 22 14 6 19 -3 28 -56 14 -78 9 -83 -89 -104
-123 -26 -246 -9 -332 45 -136 87 -187 325 -106 497 70 150 246 222 401 164z
m729 1 c25 -9 25 -10 13 -73 -13 -70 -5 -66 -107 -53 -31 4 -77 4 -102 1 l-46
-7 0 -285 0 -284 -75 0 -75 0 0 335 0 335 25 10 c97 37 295 48 367 21z m544
-9 c55 -28 103 -77 125 -127 22 -49 42 -168 37 -222 l-3 -38 -227 -3 c-253 -3
-242 1 -213 -70 24 -55 53 -81 114 -99 62 -18 160 -12 219 13 19 8 37 13 38
11 5 -4 24 -105 24 -123 0 -25 -107 -49 -215 -48 -122 1 -193 25 -255 85 -67
65 -94 135 -98 255 -8 196 64 323 211 376 70 25 185 20 243 -10z m1491 -4 l52
-26 63 26 c51 21 80 26 153 26 104 1 153 -18 202 -79 51 -61 55 -89 60 -373
l5 -262 -81 0 -81 0 0 243 c0 265 -6 296 -60 325 -29 15 -132 10 -172 -8 -23
-11 -24 -15 -17 -53 5 -23 8 -147 9 -274 l0 -233 -75 0 -75 0 0 198 c0 216
-10 304 -38 342 -24 31 -82 45 -156 36 l-56 -7 0 -285 0 -284 -75 0 -75 0 2
342 3 342 35 8 c78 18 159 26 240 25 71 -2 95 -7 137 -29z m-5067 -195 c0
-120 5 -236 10 -257 20 -89 72 -119 189 -109 l71 6 0 288 0 289 75 0 75 0 0
-344 c0 -320 -1 -345 -17 -350 -64 -18 -152 -29 -243 -29 -89 -1 -113 2 -155
21 -63 29 -90 55 -123 117 -27 50 -27 50 -30 318 l-3 267 75 0 76 0 0 -217z
m4040 -28 c3 -141 10 -250 17 -265 26 -60 80 -82 183 -73 l70 6 0 288 0 289
75 0 75 0 0 -344 c0 -320 -1 -345 -17 -350 -65 -18 -152 -29 -243 -29 -90 -1
-113 2 -158 22 -30 14 -68 41 -87 64 -60 70 -67 105 -72 369 -3 131 -3 245 1
253 5 13 20 15 78 13 l73 -3 5 -240z"/>
<path d="M3582 1338 c-30 -21 -72 -89 -72 -116 0 -9 40 -12 145 -12 l145 0 0
25 c0 35 -24 79 -56 104 -38 30 -118 29 -162 -1z"/>
<path d="M4820 1324 c-21 -19 -42 -45 -45 -57 -18 -62 -30 -57 134 -57 l151 0
-7 33 c-8 45 -38 92 -68 105 -14 7 -48 12 -75 12 -43 0 -55 -5 -90 -36z"/>
</g>
</svg>
